# xmcd CD database file
#
# Track frame offsets:
#	150
#	31430
#	65425
#	111025
#	132215
#	153622
#	171547
#	182967
#	205155
#	220865
#	254211
#	276119
#	296012
#	318954
#
# Disc length: 4658 seconds
#
# Revision: 0
# Processed by: cddbd v1.5.1PL0 Copyright (c) Steve Scherf et al.
# Submitted via: CDex 1.51
#
DISCID=e112300e
DTITLE=Wes Montgomery - Fingerpickin'
DYEAR=1900
DGENRE=Jazz
TTITLE0=Sound Carrier
TTITLE1=Bud's Beaux Arts
TTITLE2=Bock to Bock
TTITLE3=Billie's Bounce
TTITLE4=Lois Ann
TTITLE5=All The Things You Are
TTITLE6=Fingerpickin'
TTITLE7=Stranger In Paradise
TTITLE8=Baubles, Bangles And Beads
TTITLE9=Not Since Nineveh
TTITLE10=Dearly Beloved
TTITLE11=The Trick Bag
TTITLE12=Canadian Sunset
TTITLE13=Fried Pies
EXTD=
EXTT0=
EXTT1=
EXTT2=
EXTT3=
EXTT4=
EXTT5=
EXTT6=
EXTT7=
EXTT8=
EXTT9=
EXTT10=
EXTT11=
EXTT12=
EXTT13=
PLAYORDER=
